<svg xmlns="http://www.w3.org/2000/svg" viewBox="0 0 500 500" style="enable-background:new 0 0 500 500" xml:space="preserve"><path style="fill:#fff" d="M0 0h500v500H0z"/><path style="fill:#b5dfea" d="M453.058 393.555c6.951 0 12.625-5.573 12.731-12.524.532-34.645 3.323-85.746-61.922-99.879-52.799-11.437-21.495-105.268-163.689-99.205-102.072 4.352-74.955 90.387-154.319 97.552-52.81 4.768-53.267 71.559-51.238 102.163.444 6.694 5.997 11.894 12.706 11.894h405.731z"/><path style="opacity:.55;fill:#90cedd" d="M403.867 281.152c-52.799-11.437-21.495-105.268-163.689-99.205-24.277 1.035-41.237 6.696-54.068 14.813 4.323-.566 8.911-.965 13.801-1.173 142.194-6.063 110.89 87.768 163.689 99.205 64.549 13.982 62.506 64.148 61.94 98.764h27.518c6.951 0 12.625-5.573 12.731-12.524.532-34.645 3.323-85.747-61.922-99.88z"/><path style="fill:#79c9e8" d="M177.77 0h2.245v163.799h-2.245zm160.974 0h2.245v188.961h-2.245z"/><path style="fill:#d7f0f9" d="M340.774 177.946 173.827 158.46c-7.135-.833-13.594 4.276-14.426 11.411l-12.46 106.754c-.833 7.135 4.276 13.594 11.411 14.426l166.947 19.486c7.135.833 13.594-4.276 14.426-11.411l12.46-106.754c.832-7.134-4.276-13.593-11.411-14.426z"/><path style="fill:#0582c1" d="m350.951 202.939 1.233-10.567c.833-7.135-4.276-13.594-11.411-14.426L173.827 158.46c-7.135-.833-13.594 4.276-14.426 11.411l-1.233 10.567 192.783 22.501z"/><path style="fill:#79c9e8" d="m185.178 245.079 21.162-37.286a6.838 6.838 0 0 1 12.736 4.167l-4.402 37.716.188.022a4.738 4.738 0 0 1-1.098 9.41l-.188-.022-.802 6.869a5.116 5.116 0 0 1-10.162-1.186l.802-6.869-15.235-1.778a4.746 4.746 0 0 1-4.163-5.263l.404-3.461a6.135 6.135 0 0 1 .758-2.319zm19.406 2.789 2.73-23.39c.019-.162-.199-.233-.279-.091l-12.503 22.063a.625.625 0 0 0 .472.93l8.886 1.037a.625.625 0 0 0 .694-.549zm73.99 8.112 21.162-37.286a6.838 6.838 0 0 1 12.736 4.167l-4.402 37.716.188.022a4.738 4.738 0 0 1-1.098 9.41l-.188-.022-.802 6.869a5.116 5.116 0 0 1-10.162-1.186l.802-6.869-15.235-1.778a4.746 4.746 0 0 1-4.163-5.263l.404-3.461a6.135 6.135 0 0 1 .758-2.319zm19.407 2.789 2.73-23.39c.019-.162-.199-.233-.279-.091l-12.503 22.063a.626.626 0 0 0 .472.93l8.887 1.037a.626.626 0 0 0 .693-.549zm-61.393-35.625c1.23-10.538 7.484-15.913 17.647-14.726 10.162 1.186 15.011 7.856 13.781 18.395l-3.998 34.25c-1.23 10.539-7.485 15.913-17.647 14.727-10.163-1.186-15.011-7.856-13.781-18.395l3.998-34.251zm6.276 36.116c-.549 4.705 1.312 6.734 4.605 7.118 3.293.384 5.572-1.161 6.121-5.866l4.151-35.567c.549-4.705-1.312-6.734-4.605-7.118-3.293-.384-5.572 1.162-6.121 5.867l-4.151 35.566z"/><path style="fill:#fff" d="M177.848 173.212a3.495 3.495 0 1 1-6.942-.81 3.495 3.495 0 0 1 6.942.81z"/><path style="fill:#79c9e8" d="M194.594 175.167a3.497 3.497 0 0 1-3.877 3.067 3.495 3.495 0 1 1 3.877-3.067z"/><path style="fill:#ffbf4d" d="M211.953 177.193a3.495 3.495 0 1 1-6.944-.812 3.495 3.495 0 0 1 6.944.812z"/><path style="fill:#00668e" d="M144.793 298.792s-2.255 9.998-1.879 20.221c.337 9.152-.752 69.31-.752 69.31h7.348s10.46-47.116 10.851-50.837c.391-3.721 5.652-40.93 5.652-40.93l-21.22 2.236z"/><path style="fill:#0582c1" d="M149.679 296.048s1.691 12.854 4.566 21.987 17.007 70.287 17.007 70.287h7.348s-1.353-47.116-1.861-50.837c-.507-3.721-4.228-40.93-4.228-40.93l-22.832-.507z"/><path style="fill:#0582c1" d="M171.853 388.311v5.128h13.988c.795 0 1.105-1.03.444-1.471-2.046-1.362-5.322-3.239-8.368-3.658h-6.064zm-29.316 0v5.128h13.988c.795 0 1.105-1.03.444-1.471-2.046-1.362-5.322-3.239-8.368-3.658h-6.064z"/><path style="fill:#00668e" d="M167.774 236.255s4.811-7.305-.713-8.018c-4.241-.547-5.986.716-5.986.716s-4.883-.538-7.556 1.778c-1.831 1.587-8.553 13.898 2.316 18.352 10.869 4.455 8.553-6.949 8.553-6.949l3.386-5.879z"/><path style="fill:#05556d" d="M167.062 228.237c-4.241-.547-5.986.716-5.986.716s-4.883-.538-7.556 1.778c-1.831 1.587-8.553 13.898 2.316 18.352 5.109 2.094 7.304.683 8.196-1.399-10.313 2.901-11.43-9.528-9.73-13.064 1.728-3.594 5.874-1.935 5.874-1.935 1.622-4.082 6.907-3.64 9.085-3.322-.396-.567-1.084-.982-2.199-1.126z"/><path style="fill:#f98d3d" d="M161.003 239.818s-1.425-1.425-2.494 0c-1.069 1.426-.356 4.633 1.425 4.811 0 0-.535 4.633-4.098 4.454v3.742h8.374v-2.851s5.167-2.138 4.989-6.414c-.178-4.276-1.425-7.305-1.425-7.305s-2.851 3.207-6.771 3.563z"/><path style="fill:#ed701b" d="M162.285 251.173c.829.345.684.868.721 1.653h1.205v-2.851s-2.029.645-5.001-1.048c0-.001 1.729 1.685 3.075 2.246z"/><path style="fill:#f98d3d" d="M163.999 232.999s-4.341-1.729-4.848-.432c-.332.849.513 1.581 1.671 2.319l-1.022.168c-.227.038-.309.328-.13.472.285.23 1.072.385 2.713.442l1.616-2.969z"/><path style="fill:none" d="m138.178 280.074 5.817 18.743-.104-.946.104.946 1.963-27.293z"/><path style="fill:#ffbf4d" d="M194.995 243.871c-8.277-6.134-30.884-11.038-30.884-11.038l-1.863 3.395s20.523 7.953 19.168 9.138c-.795.7-10.825 5.295-14.219 6.841a5.408 5.408 0 0 1-2.334.479l-10.39-.059s-7.496-.891-13.395 5.884c-5.272 6.068-14.234 20.118-14.234 20.118l15.096 22.202 1.672 2.452.015-.03-.015.206s.537.059 1.487.147c4.853.449 20.405 1.679 28.638-.066l.228-.052-.39-36.421c13.144-10.405 19.418-18.439 21.664-20.965a1.522 1.522 0 0 0-.244-2.231zM144.34 293.54l-1.473-3.218-4.691-10.25 7.784-8.719-1.399 19.131-.221 3.056z"/><path style="fill:#efaa3a" d="m142.867 290.322 1.473 3.218-.715 9.713-.014.029-1.672-2.452z"/><path style="opacity:.29;fill:#f98d2b" d="M170.062 265.758c-1.398 1.015-1.044 10.023-1.389 15.654-.578 9.431-1.141 17.592-.726 22.854 2.131-.14 4.113-.371 5.789-.726l.228-.052-.39-36.421c13.144-10.405 19.418-18.439 21.664-20.965a1.521 1.521 0 0 0-.243-2.231s-10.39 11.328-24.933 21.887z"/><path style="fill:#00668e" d="M176.74 337.485c-.366-2.685-2.405-22.804-3.512-33.8l-5.281.581s7.704 63.333 8.21 84.056h2.444c0 .001-1.353-47.116-1.861-50.837z"/><path style="fill:#0582c1" d="m142.881 240.857-1.592-2.855a10.727 10.727 0 0 0 1.254-5.041c0-5.954-4.827-10.781-10.781-10.781-5.954 0-10.781 4.827-10.781 10.781 0 5.954 4.827 10.781 10.781 10.781 2.998 0 5.708-1.225 7.662-3.2l3.457.315z"/><path style="fill:#fff" d="M126.154 231.988h.42v1.503c0 .46.137.658.461.658.253 0 .43-.127.663-.415v-1.746h.415v2.459h-.343l-.036-.385h-.015c-.228.268-.47.445-.81.445-.521 0-.754-.334-.754-.961v-1.558zm3.708 2.666v.83h-.415v-3.497h.345l.035.283h.015c.223-.187.496-.344.785-.344.632 0 .971.491.971 1.255 0 .835-.501 1.326-1.063 1.326-.227 0-.455-.106-.683-.283l.01.43zm.602-.495c.405 0 .703-.369.703-.976 0-.542-.183-.906-.648-.906-.208 0-.415.116-.658.334v1.29c.223.187.441.258.603.258zm2.23-.269c.213.172.43.294.724.294.324 0 .486-.172.486-.385 0-.253-.293-.364-.562-.465-.349-.126-.734-.294-.734-.708 0-.395.314-.698.845-.698.309 0 .577.126.764.278l-.197.263c-.167-.126-.344-.217-.562-.217-.309 0-.45.167-.45.354 0 .228.268.319.546.425.354.131.749.278.749.744 0 .399-.319.734-.901.734-.349 0-.683-.147-.916-.339l.208-.28zm2.908-.02c.162 0 .299.131.299.324a.303.303 0 0 1-.299.313.304.304 0 0 1-.304-.313c.001-.192.137-.324.304-.324zm1.765 0c.162 0 .299.131.299.324a.303.303 0 0 1-.299.313.304.304 0 0 1-.304-.313c.001-.192.138-.324.304-.324z"/><path style="fill:#79c9e8" d="M101.545 370.495s-2.265-2.115-.745-10.139 5.376-15.73 3.484-24.435c-1.892-8.705-16.725-30.655-16.775-32.114-.05-1.46-4.576 25.535 3.095 36.169 7.671 10.634 8.594 14.323 8.253 19.915-.341 5.592.079 10.096.92 11.396l1.768-.792z"/><path style="fill:#49b4d6" d="M100.141 354.356c-.892 3.579-1.43 12.555-.005 14.703.133.201.324.086.562-.284-.434-1.484-.719-4.084.102-8.419 1.52-8.024 5.376-15.73 3.484-24.435-1.892-8.705-16.725-30.654-16.775-32.114 0 0 2.235 18.287 9.763 30.875 5.39 9.01 3.761 16.094 2.869 19.674z"/><path style="fill:#79c9e8" d="M104.25 369.937s-4.358-10.88 3.028-20.3c7.385-9.42 19.197-21.516 19.432-26.308 0 0 3.035 22.75-6.577 29.191-9.613 6.44-16.354 7.468-14.687 17.376l-1.196.041z"/><path style="fill:#49b4d6" d="M114.625 347.946c-10.719 7.802-11.595 16.789-9.932 20.957.129.324.374.522.697.628-1.437-9.564 5.249-10.652 14.741-17.011 9.613-6.44 6.577-29.191 6.577-29.191s-1.364 16.816-12.083 24.617z"/><path style="fill:#79c9e8" d="M97.083 370.182s1.398-5.761.654-11.981c-.744-6.22-7.241-9.718-13.312-16.288-3.123-3.38-4.047-21.254-2.111-22.915 0 0-10.718 12.989-9.065 22.499 1.653 9.51 19.138 15.69 20.756 20.286 1.618 4.595 1.484 8.453 1.484 8.453l1.594-.054z"/><path style="fill:#49b4d6" d="M78.692 324.11c-3.543 9.593.089 21.211 11.856 28.427 8.663 5.313 5.904 16.36 5.904 16.36l1.415-4.358c.125-1.884.139-4.079-.131-6.338-.744-6.22-7.241-9.718-13.312-16.288-3.012-3.26-3.978-19.998-2.305-22.673a57.76 57.76 0 0 0-3.427 4.87zm3.428-4.87c.121-.153.194-.242.194-.242a1.104 1.104 0 0 0-.194.242z"/><path style="fill:#79c9e8" d="M106.493 369.462s2.512-9.321 8.725-10.576c6.213-1.255 13.347-10.435 13.733-12.236 0 .001-1.048 17.315-22.458 22.812z"/><path style="fill:#49b4d6" d="M114.863 361.968c-3.807 1.904-5.39 4.464-5.952 6.788 19.062-6.13 20.04-22.105 20.04-22.105-.076.356-.424 1.007-.968 1.821-1.87 3.275-6.396 10.134-13.12 13.496z"/><path style="fill:#ffbf4d" d="M119.937 366.03H87.442l3.859 24.27a3.791 3.791 0 0 0 3.744 3.196h17.289a3.791 3.791 0 0 0 3.744-3.196l3.859-24.27z"/><path style="fill:#ff9f50" d="m119.299 370.045.638-4.015H87.442l.639 4.015z"/><path style="fill:#ff9f50" d="m112.065 366.03-3.859 24.27a3.79 3.79 0 0 1-3.744 3.195h7.872a3.791 3.791 0 0 0 3.744-3.195l3.859-24.27h-7.872z"/><path style="fill:#ffbf4d" d="M197.202 322.747h146.863v29.86H197.202z"/><path style="opacity:.29;fill:#f98d2b" d="M197.202 322.747h146.863v7.248H197.202z"/><path style="fill:#f77e2d" d="M209.972 322.747h13.404l-3.593 7.251h-13.411zm30.199 0h13.404l-3.593 7.251h-13.404zm30.199 0h13.405l-3.593 7.251h-13.404zm30.2 0h13.397l-3.593 7.251h-13.397zm43.495 0v.202l-3.499 7.049h-13.39l3.593-7.251z"/><path style="fill:#79c9e8" d="M215.484 352.61h10.353v40.829h-10.353z"/><path style="fill:#49b4d6" d="M223.485 352.61h2.352v40.829h-2.352z"/><path style="fill:#79c9e8" d="M316.235 352.61h10.353v40.829h-10.353z"/><path style="fill:#49b4d6" d="M323.527 352.61h3.061v40.829h-3.061zm-108.043-.032h10.353v5.142h-10.353z"/><path style="fill:#49b4d6" d="M316.235 352.578h10.353v5.142h-10.353z"/><path style="fill:#79c9e8" d="M215.484 318.082h10.353v4.636h-10.353z"/><path style="fill:#49b4d6" d="M223.485 318.082h2.352v4.636h-2.352z"/><path style="fill:#79c9e8" d="M316.235 318.082h10.353v4.636h-10.353z"/><path style="fill:#49b4d6" d="M323.527 318.082h3.061v4.636h-3.061zm-108.043 4.056h10.353v.584h-10.353z"/><path style="fill:#49b4d6" d="M316.235 322.138h10.353v.584h-10.353z"/><path style="fill:#0582c1" d="m223.376 322.747-14.811 29.861h-11.363v-4.12l12.77-25.741zm16.795 0-14.811 29.861h13.404l14.811-29.861zm43.604 0-14.811 29.861h-13.405l14.811-29.861zm30.192 0-14.804 29.861h-13.404l14.811-29.861zm16.802 0-14.811 29.861h13.397l14.71-29.659z"/><path style="fill:#00668e" d="m223.376 322.747-3.593 7.251h-13.411l3.6-7.251zm30.199 0-3.593 7.251h-13.404l3.593-7.251zm30.2 0-3.593 7.251h-13.404l3.592-7.251zm30.192 0-3.593 7.251h-13.397l3.593-7.251zm30.098.202-3.499 7.049h-13.39l3.593-7.251z"/><linearGradient id="a" gradientUnits="userSpaceOnUse" x1="271.414" y1="361.342" x2="271.414" y2="337.288"><stop offset="0" style="stop-color:#fff"/><stop offset="1" style="stop-color:#fff;stop-opacity:0"/></linearGradient><path style="opacity:.55;fill:url(#a)" d="M201.295 335.666h140.24v14.936h-140.24z"/><circle transform="rotate(-9.249 220.418 311.707)" style="fill:#ffbf4d" cx="220.39" cy="311.602" r="9.231"/><path style="fill:#0582c1" d="M224.574 311.602a4.183 4.183 0 1 0-8.367 0 4.183 4.183 0 0 0 8.367 0z"/><circle transform="rotate(-9.249 321.406 311.717)" style="fill:#ffbf4d" cx="321.351" cy="311.602" r="9.231"/><path style="fill:#0582c1" d="M325.534 311.602a4.183 4.183 0 1 0-8.367 0 4.183 4.183 0 0 0 8.367 0z"/><path style="fill:#ffbf4d" d="M399.705 390.274h-46.773l7.155-17.343v-.01l2.877-6.998.793-1.918 1.292-3.122.264-.636 2.878-6.998.529-1.272 5.099-12.381c.92-2.232 4.081-2.232 5.001 0l5.099 12.381.529 1.272 2.877 6.998.264.636 1.292 3.122.793 1.918 2.878 6.998v.01l7.153 17.343z"/><path style="opacity:.29;fill:#f98d2b" d="m355.998 382.838-3.064 7.435h46.776l-3.065-7.435z"/><path style="fill:#79c9e8" d="M349.195 385.828h53.571v7.573h-53.571z"/><path style="fill:#49b4d6" d="M391.191 385.828h11.574v7.573h-11.574z"/><path style="opacity:.29;fill:#f98d2b" d="M397.865 385.825h-6.616l-5.315-12.89v-.01l-2.877-6.998-.793-1.918-1.292-3.122-.264-.636-2.877-6.998-.529-1.272-4.287-10.423.803-1.957c.92-2.232 4.081-2.232 5.001 0l5.099 12.381.529 1.272 2.877 6.998.264.636 1.292 3.122.793 1.918 2.878 6.998v.01l5.314 12.889z"/><path style="fill:#0582c1" d="M387.324 360.247h-22.011l2.877-6.998h16.257zm5.227 12.674v.01h-32.465v-.01l2.878-6.998h26.709z"/><path style="fill:#00668e" d="M387.324 360.247h-6.616l-2.877-6.998h6.616zm5.227 12.674v.01h-6.617v-.01l-2.877-6.998h6.616z"/><path style="fill:#d7f0f9" d="M101.558 220.208c3.495 0 6.533-2.538 7.005-6 .085-.621.128-1.255.128-1.899 0-7.709-6.25-13.958-13.959-13.958-.316 0-.629.014-.94.035-.637-7.602-7.005-13.574-14.772-13.574-8.19 0-14.828 6.639-14.828 14.829 0 .363.018.722.043 1.079a14.776 14.776 0 0 0-7.913-1.86c-7.448.341-13.568 6.299-14.095 13.737l-.011.177c-.24 4.045 3.03 7.437 7.082 7.437h52.26zm333.134 10.964c11.038 0 11.649-16.612.624-17.148a18.418 18.418 0 0 0-6.55.861c-1.476-8.992-9.279-15.853-18.688-15.853-9.616 0-17.553 7.167-18.774 16.451a17.384 17.384 0 0 0-7.537-1.707c-1.508 0-2.971.191-4.367.551-9.652 2.486-7.626 16.846 2.341 16.846h52.951zm-132.557-81.849c11.035 0 11.646-16.607.624-17.143a18.405 18.405 0 0 0-6.548.861c-1.475-8.989-9.276-15.848-18.682-15.848-9.613 0-17.548 7.165-18.768 16.446a17.375 17.375 0 0 0-7.535-1.707c-1.507 0-2.97.191-4.365.55-9.649 2.485-7.624 16.841 2.34 16.841h52.934z"/><circle style="fill:#ffbf4d" cx="126.446" cy="153.563" r="26.455"/><path style="fill:#ff9f50" d="M126.663 127.113c7.195 4.728 11.949 12.867 11.949 22.119 0 14.611-11.844 26.455-26.455 26.455-.073 0-.145-.005-.217-.005a26.32 26.32 0 0 0 14.506 4.335c14.611 0 26.455-11.844 26.455-26.455 0-14.537-11.728-26.331-26.238-26.449z"/></svg>
